<svg xmlns="http://www.w3.org/2000/svg" width="25.958" height="30.711" viewBox="0 0 25.958 30.711">
  <path id="Path_155" data-name="Path 155" d="M784.3,61.979l1.2-1.2a1.2,1.2,0,0,0-1.694-1.695l-1.2,1.2a12.86,12.86,0,0,0-7.094-2.938V54.935h1.158a1.2,1.2,0,0,0,0-2.4h-4.712a1.2,1.2,0,0,0,0,2.4h1.158v2.412A12.978,12.978,0,1,0,784.3,61.979Zm-9.986,18.875A10.583,10.583,0,1,1,784.9,70.271,10.595,10.595,0,0,1,774.313,80.853Zm5.552-16.135a1.2,1.2,0,0,1,0,1.694l-4.705,4.705a1.2,1.2,0,0,1-1.694-1.694l4.7-4.705A1.2,1.2,0,0,1,779.865,64.718Z" transform="translate(-761.334 -52.539)" fill="#4a4949"/>
</svg>
