<svg id="Group_795" data-name="Group 795" xmlns="http://www.w3.org/2000/svg" width="26.511" height="30.711" viewBox="0 0 26.511 30.711">
  <path id="Path_157" data-name="Path 157" d="M846.571,90.552l-11.287-5.226,4.113-2.087c-.413-.414-.9-.963-1.248-1.384l-5.333,2.706a.9.9,0,0,0,.03,1.619l15.47,7.162A24.94,24.94,0,0,1,846.571,90.552Z" transform="translate(-832.323 -64.549)" fill="#4a4949"/>
  <g id="Group_793" data-name="Group 793" transform="translate(2.758)">
    <path id="Path_158" data-name="Path 158" d="M843.174,52.539A6.185,6.185,0,0,0,837,58.717c0,5.587,5.315,10.967,5.542,11.193a.9.9,0,0,0,1.272,0c.226-.226,5.542-5.606,5.542-11.193A6.185,6.185,0,0,0,843.174,52.539Zm-.029,8.787a2.609,2.609,0,1,1,2.609-2.609A2.612,2.612,0,0,1,843.144,61.326Z" transform="translate(-836.996 -52.539)" fill="#4a4949"/>
    <path id="Path_159" data-name="Path 159" d="M846.849,61.633a.81.81,0,1,0,.81.81A.811.811,0,0,0,846.849,61.633Z" transform="translate(-840.701 -56.265)" fill="#4a4949"/>
  </g>
  <g id="Group_794" data-name="Group 794" transform="translate(14.154 13.076)">
    <path id="Path_160" data-name="Path 160" d="M862.479,74.69a6.185,6.185,0,0,0-6.178,6.178c0,5.587,5.316,10.967,5.543,11.193a.9.9,0,0,0,1.272,0c.226-.226,5.542-5.606,5.542-11.193A6.185,6.185,0,0,0,862.479,74.69Zm-.029,8.817a2.609,2.609,0,1,1,2.609-2.609A2.612,2.612,0,0,1,862.45,83.507Z" transform="translate(-856.301 -74.69)" fill="#4a4949"/>
    <path id="Path_161" data-name="Path 161" d="M866.155,83.835a.81.81,0,1,0,.81.81A.811.811,0,0,0,866.155,83.835Z" transform="translate(-860.006 -78.437)" fill="#4a4949"/>
  </g>
</svg>
