<svg xmlns="http://www.w3.org/2000/svg" width="33.934" height="33.933" viewBox="0 0 33.934 33.933">
  <g id="Group_855" data-name="Group 855" transform="translate(-668.93 -154.539)">
    <path id="Path_194" data-name="Path 194" d="M685.963,154.539a16.967,16.967,0,1,0,16.9,16.9A17.025,17.025,0,0,0,685.963,154.539Z" fill="#dbdbdb"/>
    <path id="Path_195" data-name="Path 195" d="M728.269,171.439a17.025,17.025,0,0,1-16.9,17.033V154.539A16.912,16.912,0,0,1,728.269,171.439Z" transform="translate(-25.405)" fill="#dbdbdb"/>
    <path id="Path_196" data-name="Path 196" d="M691.894,164.446a12.99,12.99,0,1,0,12.924,12.924A13.063,13.063,0,0,0,691.894,164.446Z" transform="translate(-5.931 -5.931)" fill="silver"/>
    <path id="Path_197" data-name="Path 197" d="M724.292,177.37a13.063,13.063,0,0,1-12.924,13.056v-25.98A12.949,12.949,0,0,1,724.292,177.37Z" transform="translate(-25.405 -5.931)" fill="silver"/>
    <g id="Group_849" data-name="Group 849" transform="translate(677.411 163.372)">
      <line id="Line_42" data-name="Line 42" x1="5.285" y1="2.779" transform="translate(8.552 13.488)" fill="#fedb41"/>
      <path id="Path_199" data-name="Path 199" d="M732.675,192.028" transform="translate(-715.572 -185.815)" fill="#fedb41"/>
      <path id="Path_200" data-name="Path 200" d="M711.368,176.548" transform="translate(-702.817 -176.548)" fill="#fedb41"/>
    </g>
    <text id="_2" data-name="2" transform="translate(685.93 176.539)" fill="#dbdbdb" font-size="18" font-family="SegoeUI, Segoe UI"><tspan x="-4.852" y="0">2</tspan></text>
  </g>
</svg>
