<svg id="Group_792" data-name="Group 792" xmlns="http://www.w3.org/2000/svg" width="22.606" height="30.711" viewBox="0 0 22.606 30.711">
  <path id="Path_154" data-name="Path 154" d="M701.343,75.579c1.689.567,3.18.928,5.323,1.575C705.843,87.356,696.007,83.3,701.343,75.579Zm8.782-9.372c-.111-3.063-.661-7.081-5.043-6.452-2.054.526-3.572,2.738-4.286,6.556a18,18,0,0,0,.3,6.811c.423,1.244.279,1.168.733,1.4,1.756.388,3.5.818,5.266,1.256C708.892,74.536,710.369,67.922,710.125,66.207ZM696.6,65.972a18.012,18.012,0,0,0,.3-6.811c-.713-3.818-2.231-6.031-4.286-6.556-4.382-.63-4.932,3.389-5.042,6.452-.245,1.714,1.233,8.33,3.032,9.575,1.771-.438,3.509-.867,5.266-1.256C696.324,67.14,696.18,67.217,696.6,65.972ZM691.031,70c.823,10.2,10.658,6.15,5.323-1.575C694.665,69,693.174,69.358,691.031,70Z" transform="translate(-687.546 -52.539)" fill="#4a4949"/>
</svg>
